<mxfile host="app.diagrams.net" modified="2024-05-25T11:22:35.505Z" agent="Mozilla/5.0 (X11; Ubuntu; Linux x86_64; rv:125.0) Gecko/20100101 Firefox/125.0" etag="nV1-pixOT74K11nL7Sy3" version="24.4.4" type="device">
  <diagram name="Page-1" id="18cYQ7XHSElUKYMeyVIY">
    <mxGraphModel dx="1186" dy="666" grid="1" gridSize="10" guides="1" tooltips="1" connect="1" arrows="1" fold="1" page="1" pageScale="1" pageWidth="850" pageHeight="1100" math="0" shadow="0">
      <root>
        <mxCell id="0" />
        <mxCell id="1" parent="0" />
        <mxCell id="CyLh5zaLHfV26oiArcWo-1" value="" style="triangle;whiteSpace=wrap;html=1;rotation=-90;fillColor=none;" vertex="1" parent="1">
          <mxGeometry x="285" y="245" width="390" height="320" as="geometry" />
        </mxCell>
        <mxCell id="CyLh5zaLHfV26oiArcWo-2" value="&lt;font size=&quot;1&quot;&gt;&lt;i style=&quot;font-size: 18px;&quot;&gt;b&lt;/i&gt;&lt;/font&gt;" style="text;html=1;align=center;verticalAlign=middle;whiteSpace=wrap;rounded=0;" vertex="1" parent="1">
          <mxGeometry x="350" y="390" width="60" height="30" as="geometry" />
        </mxCell>
        <mxCell id="CyLh5zaLHfV26oiArcWo-3" value="&lt;font size=&quot;1&quot;&gt;&lt;i style=&quot;font-size: 18px;&quot;&gt;a&lt;/i&gt;&lt;/font&gt;" style="text;html=1;align=center;verticalAlign=middle;whiteSpace=wrap;rounded=0;" vertex="1" parent="1">
          <mxGeometry x="550" y="390" width="60" height="30" as="geometry" />
        </mxCell>
        <mxCell id="CyLh5zaLHfV26oiArcWo-4" value="&lt;font style=&quot;font-size: 18px;&quot;&gt;&lt;i&gt;c&lt;/i&gt;&lt;/font&gt;" style="text;html=1;align=center;verticalAlign=middle;whiteSpace=wrap;rounded=0;" vertex="1" parent="1">
          <mxGeometry x="450" y="600" width="60" height="30" as="geometry" />
        </mxCell>
        <mxCell id="CyLh5zaLHfV26oiArcWo-5" value="&lt;font style=&quot;font-size: 18px;&quot;&gt;Tag&lt;br&gt;&lt;/font&gt;" style="text;html=1;align=center;verticalAlign=middle;whiteSpace=wrap;rounded=0;" vertex="1" parent="1">
          <mxGeometry x="450" y="170" width="60" height="30" as="geometry" />
        </mxCell>
        <mxCell id="CyLh5zaLHfV26oiArcWo-6" value="&lt;font style=&quot;font-size: 18px;&quot;&gt;Anchor&lt;/font&gt;" style="text;html=1;align=center;verticalAlign=middle;whiteSpace=wrap;rounded=0;" vertex="1" parent="1">
          <mxGeometry x="260" y="600" width="60" height="30" as="geometry" />
        </mxCell>
        <mxCell id="CyLh5zaLHfV26oiArcWo-7" value="&lt;font style=&quot;font-size: 18px;&quot;&gt;Anchor&lt;/font&gt;" style="text;html=1;align=center;verticalAlign=middle;whiteSpace=wrap;rounded=0;" vertex="1" parent="1">
          <mxGeometry x="640" y="600" width="60" height="30" as="geometry" />
        </mxCell>
        <mxCell id="CyLh5zaLHfV26oiArcWo-8" value="" style="endArrow=none;html=1;rounded=0;curved=1;strokeColor=default;entryX=0.038;entryY=0.028;entryDx=0;entryDy=0;entryPerimeter=0;" edge="1" parent="1" target="CyLh5zaLHfV26oiArcWo-1">
          <mxGeometry width="50" height="50" relative="1" as="geometry">
            <mxPoint x="340" y="600" as="sourcePoint" />
            <mxPoint x="330" y="590" as="targetPoint" />
            <Array as="points">
              <mxPoint x="340" y="590" />
            </Array>
          </mxGeometry>
        </mxCell>
        <mxCell id="CyLh5zaLHfV26oiArcWo-10" value="" style="endArrow=none;html=1;rounded=0;curved=1;strokeColor=default;exitX=0.003;exitY=0.932;exitDx=0;exitDy=0;exitPerimeter=0;entryX=0.044;entryY=0.975;entryDx=0;entryDy=0;entryPerimeter=0;" edge="1" parent="1" source="CyLh5zaLHfV26oiArcWo-1" target="CyLh5zaLHfV26oiArcWo-1">
          <mxGeometry width="50" height="50" relative="1" as="geometry">
            <mxPoint x="610" y="590" as="sourcePoint" />
            <mxPoint x="630" y="580" as="targetPoint" />
            <Array as="points">
              <mxPoint x="620" y="585" />
            </Array>
          </mxGeometry>
        </mxCell>
        <mxCell id="CyLh5zaLHfV26oiArcWo-11" value="" style="endArrow=none;html=1;rounded=0;curved=1;strokeColor=default;entryX=0.942;entryY=0.528;entryDx=0;entryDy=0;entryPerimeter=0;exitX=0.942;exitY=0.472;exitDx=0;exitDy=0;exitPerimeter=0;" edge="1" parent="1" source="CyLh5zaLHfV26oiArcWo-1" target="CyLh5zaLHfV26oiArcWo-1">
          <mxGeometry width="50" height="50" relative="1" as="geometry">
            <mxPoint x="450" y="235" as="sourcePoint" />
            <mxPoint x="439" y="220" as="targetPoint" />
            <Array as="points">
              <mxPoint x="480" y="240" />
            </Array>
          </mxGeometry>
        </mxCell>
        <mxCell id="CyLh5zaLHfV26oiArcWo-14" value="" style="shape=image;verticalLabelPosition=bottom;labelBackgroundColor=default;verticalAlign=top;aspect=fixed;imageAspect=0;image=data:image/svg+xml,PHN2ZyB4bWxucz0iaHR0cDovL3d3dy53My5vcmcvMjAwMC9zdmciIHZlcnNpb249IjEuMSIgaGVpZ2h0PSI0MDAiIHdpZHRoPSI0MDAiIHZpZXdCb3g9IjAgMCA0MDAgNDAwIj4mI3hhOyA8cGF0aCBkPSJtMTUwLjUzIDM3MS43NWgtMzAuNTcycTYuNjcwMS0zMS4zMTMgNi42NzAxLTU2LjY5N3YtMjAxLjc4cTAtMzEuNDk4IDUuNTYwNC00Ni44NzcgNS43NDI1LTE1LjM3OSAyMi4wNDgtMjcuMDUyIDE2LjQ5LTExLjg1OCA0MS4xMzQtMTEuODU4IDI5LjI3NSAwIDQ5LjEwMSAxNS41NjQgMjAuMDEgMTUuMzc5IDIwLjAxIDQzLjkxMyAwIDMzLjM1MS0zMS42ODQgNTQuNjU5IDQ3LjI0OCAyMi4yMzQgNDcuMjQ4IDY5Ljg1MiAwIDI1Ljk0LTEyLjU5OSA0Ni41MDctMTIuNDE0IDIwLjM4MS0yOC45MDQgMjkuMDktMTYuMzA1IDguNzA4NS0zOS4wOTYgOC43MDg1LTI1Ljk0IDAtNDIuMjQ1LTE5LjQ1NXYzNC40NjNxMCAzNS41NzUtNi42NzAxIDYwLjk1OXptNi42NzAyLTExMi4xcTE0LjQ1MiAyMy45MDIgNDAuMzkzIDIzLjkwMiAyNS4wMTMgMCAzNi42ODYtMTguMTU4IDExLjY3My0xOC4zNDMgMTEuNjczLTQ0LjQ2OSAwLTIwLjAxMS03Ljc4MjItNDAuNzYzLTcuNTk2Ni0yMC45MzctMTkuNjQtMzEuODY5LTExLjExNyAyLjc3OTEtMjAuMDExIDIuNzc5MS0xOC43MTMgMC0xOC43MTMtOS44MjAyIDAtOC44OTM2IDE1Ljc0OS04Ljg5MzYgOS44MjAzIDAgMjQuNDU4IDQuNDQ3MSAxMy4xNTUtMjIuMjM0IDEzLjE1NS00OC4zNTkgMC0yMy4zNDYtMTAuMzc2LTM1Ljc2LTEwLjE5MS0xMi40MTQtMjYuNjgxLTEyLjQxNC0xMy4xNTUgMC0yMi42MDQgNy40MTEzLTkuMjY0MiA3LjQxMTYtMTIuNzg1IDE3Ljc4Ny0zLjUyMjkgMTAuMTkxLTMuNTIyOSAzMy41Mzd6Ii8+JiN4YTs8L3N2Zz4=;" vertex="1" parent="1">
          <mxGeometry x="600" y="570" width="20" height="20" as="geometry" />
        </mxCell>
        <mxCell id="CyLh5zaLHfV26oiArcWo-16" value="" style="shape=image;verticalLabelPosition=bottom;labelBackgroundColor=default;verticalAlign=top;aspect=fixed;imageAspect=0;image=data:image/svg+xml,PHN2ZyB4bWxucz0iaHR0cDovL3d3dy53My5vcmcvMjAwMC9zdmciIHZlcnNpb249IjEuMSIgaGVpZ2h0PSI0MDAiIHdpZHRoPSI0MDAiIHZpZXdCb3g9IjAgMCA0MDAgNDAwIj4mI3hhOyA8cGF0aCBkPSJtMjM5Ljg0IDEyMC44OGgzMS40OThsLTE5LjA4NCA4NS43ODdxLTUuNTYwNCAyNC40NTgtNy41OTY4IDMwLjAxNiA3LjQxMTcgMzQuMDkzIDIxLjQ5MyAzNC4wOTMgMTYuNjc2IDAgMTcuMjMyLTIyLjk3NWg2LjY3MDFxLTAuNTI4MiAyMS40OTMtNy45NjcxIDM0LjgzNC03LjIyNjIgMTMuMTU1LTE5LjA4NCAxMy4xNTUtOS44MjAzIDAtMTQuNjM3LTcuOTY3My00LjgxNDctNy45NjczLTEwLjM3Ni0zMi42MS0xOS4yNyA0MC41NzgtNjIuOTk3IDQwLjU3OC0yOS44MzEgMC00Ny40MzMtMjMuMTYxLTE3LjYwMi0yMy4zNDYtMTcuNjAyLTY2LjcwMiAwLTQyLjYxNiAxOS4yNy02Ni4zMzIgMTkuMjY5LTIzLjcxNiA0Ni4zMjEtMjMuNzE2IDE5LjA4NCAwIDMxLjMxMyAxMy41MjYgMTIuMjI5IDEzLjUyNiAyMS42NzkgNDQuMDk4em0tMTYuMzA1IDcyLjYzMnEtOC43MDgyLTI5LjgzMS0xOS40NTUtNDYuNTA3LTEwLjc0Ni0xNi44NjEtMjUuNzU1LTE2Ljg2MS0zMy45MDcgMC0zMy45MDcgNzkuMzAyIDAgNzUuMjI2IDMyLjQyNSA3NS4yMjYgMjguMTYzIDAgNDEuNjg5LTY2LjMzMnoiLz4mI3hhOzwvc3ZnPg==;" vertex="1" parent="1">
          <mxGeometry x="340" y="570" width="25" height="25" as="geometry" />
        </mxCell>
        <mxCell id="CyLh5zaLHfV26oiArcWo-17" value="" style="shape=image;verticalLabelPosition=bottom;labelBackgroundColor=default;verticalAlign=top;aspect=fixed;imageAspect=0;image=data:image/svg+xml,PHN2ZyB4bWxucz0iaHR0cDovL3d3dy53My5vcmcvMjAwMC9zdmciIHZlcnNpb249IjEuMSIgaGVpZ2h0PSIxMDAiIHdpZHRoPSI2NSIgdmlld0JveD0iMCAwIDY1IDEwMCI+JiN4YTsgPHBhdGggZD0ibTQ5LjQ2NSAyLjAwMTloMTQuNzE0bC0yOC42NDMgNjAuMDdxMS4wNzA3IDkuNjQzMSAxLjA3MDcgMTYuODU3IDAgMjAuMDcxLTcuNSAyMC4wNzEtNS40MjgzIDAtNS40MjgzLTguNDI4NyAwLTExIDcuOTk5Ni0yNy41NzEtMS41NzA5LTEwLjI4Ni00LjQyODMtMjQuNzg2LTIuNzg1Ny0xNC41LTUuNzg1Ny0yMC43ODYtMi45Mjg2LTYuMjg1Ny04LjQyODctNi4yODU3LTkgMC05LjY0MzEgMTMuNDI5aC0yLjU3MTRxMC0yMy41NzEgMTQtMjMuNTcxIDguMDcxNCAwIDEyIDkuNTcxNCAzLjkyODcgOS41IDguMDcxNyA0MS40M3oiLz4mI3hhOzwvc3ZnPg==;" vertex="1" parent="1">
          <mxGeometry x="471.88" y="245" width="16.25" height="25" as="geometry" />
        </mxCell>
      </root>
    </mxGraphModel>
  </diagram>
</mxfile>
